<?xml version="1.0" encoding="UTF-8" standalone="no"?><svg xmlns="http://www.w3.org/2000/svg" xmlns:xlink="http://www.w3.org/1999/xlink" contentStyleType="text/css" height="217px" preserveAspectRatio="none" style="width:895px;height:217px;background:#FFFFFF;" version="1.1" viewBox="0 0 895 217" width="895px" zoomAndPan="magnify"><defs/><g><g id="elem_a"><ellipse cx="152.8886" cy="176.2777" fill="#F1F1F1" rx="146.8886" ry="31.7777" style="stroke:#181818;stroke-width:0.5;"/><text fill="#000000" font-family="sans-serif" font-size="14" lengthAdjust="spacing" textLength="264" x="20.8886" y="179.1244">Générer les relevés mensuels en PDF</text></g><g id="elem_b"><ellipse cx="496.8149" cy="176.263" fill="#F1F1F1" rx="161.8149" ry="34.763" style="stroke:#181818;stroke-width:0.5;"/><text fill="#000000" font-family="sans-serif" font-size="14" lengthAdjust="spacing" textLength="295" x="349.3149" y="179.1097">Exécuter les prélèvements automatiques</text></g><g id="elem_c"><ellipse cx="791.7599" cy="176.352" fill="#F1F1F1" rx="97.2599" ry="21.852" style="stroke:#181818;stroke-width:0.5;"/><text fill="#000000" font-family="sans-serif" font-size="14" lengthAdjust="spacing" textLength="158" x="712.7599" y="179.1987">autres fonctionnalités</text></g><!--MD5=[6e53e4912c308b5abf33c4da5f75d75e]
entity Chef_agence--><g id="elem_Chef_agence"><ellipse cx="792" cy="14" fill="#F1F1F1" rx="8" ry="8" style="stroke:#181818;stroke-width:0.5;"/><path d="M792,22 L792,49 M779,30 L805,30 M792,49 L779,64 M792,49 L805,64 " fill="none" style="stroke:#181818;stroke-width:0.5;"/><text fill="#000000" font-family="sans-serif" font-size="14" lengthAdjust="spacing" textLength="93" x="745.5" y="78.4951">Chef_agence</text></g><!--MD5=[f729b69e388d687b52ac21b4c34bd064]
entity Batch--><g id="elem_Batch"><ellipse cx="325" cy="14" fill="#F1F1F1" rx="8" ry="8" style="stroke:#181818;stroke-width:0.5;"/><path d="M325,22 L325,49 M312,30 L338,30 M325,49 L312,64 M325,49 L338,64 " fill="none" style="stroke:#181818;stroke-width:0.5;"/><text fill="#000000" font-family="sans-serif" font-size="14" lengthAdjust="spacing" textLength="42" x="304" y="78.4951">Batch</text></g><!--MD5=[8811461c9c49b53646fa284328603e7c]
link Batch to a--><g id="link_Batch_a"><path d="M303.909,60.563 C277.273,80.85 230.776,116.2633 196.413,142.4352 " fill="none" id="Batch-to-a" style="stroke:#181818;stroke-width:1.0;"/><polygon fill="#181818" points="192.285,145.5794,201.8683,143.3077,196.2625,142.5496,197.0206,136.9438,192.285,145.5794" style="stroke:#181818;stroke-width:1.0;"/></g><!--MD5=[b584269c4eb3f65328d2684f503e316b]
link Batch to b--><g id="link_Batch_b"><path d="M346.091,60.563 C371.778,80.128 415.938,113.7612 449.872,139.6061 " fill="none" id="Batch-to-b" style="stroke:#181818;stroke-width:1.0;"/><polygon fill="#181818" points="453.958,142.7178,449.2206,134.0832,449.9799,139.6888,444.3742,140.4481,453.958,142.7178" style="stroke:#181818;stroke-width:1.0;"/></g><!--MD5=[77b9eda0ac2811488967a4ce7ae5fbfc]
link Chef_agence to c--><g id="link_Chef_agence_c"><path d="M792,81.689 C792,103.123 792,129.566 792,148.9084 " fill="none" id="Chef_agence-to-c" style="stroke:#181818;stroke-width:1.0;"/><polygon fill="#181818" points="792,154.1656,796,145.1656,792,149.1656,788,145.1656,792,154.1656" style="stroke:#181818;stroke-width:1.0;"/></g><!--MD5=[fce42eb86770ce7db91cd20b8822a89c]
@startuml
usecase a as "Générer les relevés mensuels en PDF"
usecase b as "Exécuter les prélèvements automatiques"
usecase c as "autres fonctionnalités"

actor Chef_agence 
actor Batch

Batch - -> a
Batch - -> b
Chef_agence - -> c
@enduml

PlantUML version 1.2022.4beta2(Unknown compile time)
(GPL source distribution)
Java Runtime: Java(TM) SE Runtime Environment
JVM: Java HotSpot(TM) 64-Bit Server VM
Default Encoding: UTF-8
Language: en
Country: US
--></g></svg>