<?xml version="1.0" encoding="UTF-8" standalone="no"?><svg xmlns="http://www.w3.org/2000/svg" xmlns:xlink="http://www.w3.org/1999/xlink" contentStyleType="text/css" height="222px" preserveAspectRatio="none" style="width:353px;height:222px;background:#FFFFFF;" version="1.1" viewBox="0 0 353 222" width="353px" zoomAndPan="magnify"><defs/><g><g id="elem_a"><ellipse cx="111.9086" cy="179.5817" fill="#F1F1F1" rx="105.9086" ry="23.5817" style="stroke:#181818;stroke-width:0.5;"/><text fill="#000000" font-family="sans-serif" font-size="14" lengthAdjust="spacing" textLength="177" x="23.4086" y="182.4284">Créditer un compte (BD)</text></g><!--MD5=[34413ead84916979ab18eea1b2c854c1]
entity Guichetier--><g id="elem_Guichetier"><ellipse cx="206" cy="14" fill="#F1F1F1" rx="8" ry="8" style="stroke:#181818;stroke-width:0.5;"/><path d="M206,22 L206,49 M193,30 L219,30 M206,49 L193,64 M206,49 L219,64 " fill="none" style="stroke:#181818;stroke-width:0.5;"/><text fill="#000000" font-family="sans-serif" font-size="14" lengthAdjust="spacing" textLength="75" x="168.5" y="78.4951">Guichetier</text></g><!--MD5=[6e53e4912c308b5abf33c4da5f75d75e]
entity Chef_agence--><g id="elem_Chef_agence"><ellipse cx="300" cy="150" fill="#F1F1F1" rx="8" ry="8" style="stroke:#181818;stroke-width:0.5;"/><path d="M300,158 L300,185 M287,166 L313,166 M300,185 L287,200 M300,185 L313,200 " fill="none" style="stroke:#181818;stroke-width:0.5;"/><text fill="#000000" font-family="sans-serif" font-size="14" lengthAdjust="spacing" textLength="93" x="253.5" y="214.4951">Chef_agence</text></g><!--MD5=[d09773056799cfcd355772dbafc0f5c1]
reverse link Guichetier to Chef_agence--><g id="link_Guichetier_Chef_agence"><path d="M243.701,98.244 C253.849,112.71 264.599,128.035 273.956,141.3737 " fill="none" id="Guichetier-backto-Chef_agence" style="stroke:#181818;stroke-width:1.0;"/><polygon fill="none" points="237.939,102.22,232.184,81.826,249.401,94.18,237.939,102.22" style="stroke:#181818;stroke-width:1.0;"/></g><!--MD5=[bb53160d542fefe9f41bbae1f5a77c48]
link Guichetier to a--><g id="link_Guichetier_a"><path d="M179.816,81.826 C164.195,104.094 144.73,131.8421 130.666,151.8912 " fill="none" id="Guichetier-to-a" style="stroke:#181818;stroke-width:1.0;"/><polygon fill="#181818" points="127.75,156.0478,136.1934,150.9775,130.6216,151.9547,129.6444,146.3829,127.75,156.0478" style="stroke:#181818;stroke-width:1.0;"/></g><!--MD5=[9c54e37f850981b295399cf28d2e3ef7]
@startuml
usecase a as "Créditer un compte (BD)"

actor Guichetier 
actor Chef_agence 

Guichetier <|- - Chef_agence

Guichetier - -> a
@enduml

PlantUML version 1.2022.6beta4(Unknown compile time)
(GPL source distribution)
Java Runtime: Java(TM) SE Runtime Environment
JVM: Java HotSpot(TM) 64-Bit Server VM
Default Encoding: UTF-8
Language: en
Country: US
--></g></svg>