<?xml version="1.0" encoding="UTF-8" standalone="no"?><svg xmlns="http://www.w3.org/2000/svg" xmlns:xlink="http://www.w3.org/1999/xlink" contentStyleType="text/css" height="222px" preserveAspectRatio="none" style="width:460px;height:222px;background:#FFFFFF;" version="1.1" viewBox="0 0 460 222" width="460px" zoomAndPan="magnify"><defs/><g><g id="elem_a"><ellipse cx="165.3999" cy="179.28" fill="#F1F1F1" rx="159.3999" ry="34.28" style="stroke:#181818;stroke-width:0.5;"/><text fill="#000000" font-family="sans-serif" font-size="14" lengthAdjust="spacing" textLength="290" x="20.3999" y="182.1267">Supprimer un prélèvement automatique</text></g><!--MD5=[34413ead84916979ab18eea1b2c854c1]
entity Guichetier--><g id="elem_Guichetier"><ellipse cx="285.5" cy="14" fill="#F1F1F1" rx="8" ry="8" style="stroke:#181818;stroke-width:0.5;"/><path d="M285.5,22 L285.5,49 M272.5,30 L298.5,30 M285.5,49 L272.5,64 M285.5,49 L298.5,64 " fill="none" style="stroke:#181818;stroke-width:0.5;"/><text fill="#000000" font-family="sans-serif" font-size="14" lengthAdjust="spacing" textLength="75" x="248" y="78.4951">Guichetier</text></g><!--MD5=[6e53e4912c308b5abf33c4da5f75d75e]
entity Chef_agence--><g id="elem_Chef_agence"><ellipse cx="406.5" cy="150" fill="#F1F1F1" rx="8" ry="8" style="stroke:#181818;stroke-width:0.5;"/><path d="M406.5,158 L406.5,185 M393.5,166 L419.5,166 M406.5,185 L393.5,200 M406.5,185 L419.5,200 " fill="none" style="stroke:#181818;stroke-width:0.5;"/><text fill="#000000" font-family="sans-serif" font-size="14" lengthAdjust="spacing" textLength="93" x="360" y="214.4951">Chef_agence</text></g><!--MD5=[d09773056799cfcd355772dbafc0f5c1]
reverse link Guichetier to Chef_agence--><g id="link_Guichetier_Chef_agence"><path d="M332.754,96.831 C346.188,111.708 360.538,127.6001 372.976,141.3737 " fill="none" id="Guichetier-backto-Chef_agence" style="stroke:#181818;stroke-width:1.0;"/><polygon fill="none" points="327.414,101.362,319.205,81.826,337.804,91.979,327.414,101.362" style="stroke:#181818;stroke-width:1.0;"/></g><!--MD5=[bb53160d542fefe9f41bbae1f5a77c48]
link Guichetier to a--><g id="link_Guichetier_a"><path d="M252.073,81.826 C235.439,100.401 215.39,122.7893 198.777,141.3411 " fill="none" id="Guichetier-to-a" style="stroke:#181818;stroke-width:1.0;"/><polygon fill="#181818" points="195.069,145.4812,204.0532,141.4458,198.4049,141.7567,198.094,136.1084,195.069,145.4812" style="stroke:#181818;stroke-width:1.0;"/></g><!--MD5=[b1a25f1c6cb6105f7f55e15429aa639d]
@startuml
usecase a as "Supprimer un prélèvement automatique"

actor Guichetier 
actor Chef_agence 

Guichetier <|- - Chef_agence

Guichetier - -> a
@enduml

PlantUML version 1.2022.6beta5(Unknown compile time)
(GPL source distribution)
Java Runtime: Java(TM) SE Runtime Environment
JVM: Java HotSpot(TM) 64-Bit Server VM
Default Encoding: UTF-8
Language: en
Country: US
--></g></svg>