<?xml version="1.0" encoding="UTF-8" standalone="no"?><svg xmlns="http://www.w3.org/2000/svg" xmlns:xlink="http://www.w3.org/1999/xlink" contentStyleType="text/css" height="208px" preserveAspectRatio="none" style="width:510px;height:208px;background:#FFFFFF;" version="1.1" viewBox="0 0 510 208" width="510px" zoomAndPan="magnify"><defs/><g><g id="elem_a"><ellipse cx="96.1144" cy="171.9229" fill="#F1F1F1" rx="90.1144" ry="20.4229" style="stroke:#181818;stroke-width:0.5;"/><text fill="#000000" font-family="sans-serif" font-size="14" lengthAdjust="spacing" textLength="142" x="25.1144" y="174.7696">Simuler un emprunt</text></g><g id="elem_b"><ellipse cx="363.1224" cy="172.2245" fill="#F1F1F1" rx="141.6224" ry="30.7245" style="stroke:#181818;stroke-width:0.5;"/><text fill="#000000" font-family="sans-serif" font-size="14" lengthAdjust="spacing" textLength="253" x="236.6224" y="175.0712">Simuler un emprunt avec assurance</text></g><!--MD5=[6e53e4912c308b5abf33c4da5f75d75e]
entity Chef_agence--><g id="elem_Chef_agence"><ellipse cx="229" cy="14" fill="#F1F1F1" rx="8" ry="8" style="stroke:#181818;stroke-width:0.5;"/><path d="M229,22 L229,49 M216,30 L242,30 M229,49 L216,64 M229,49 L242,64 " fill="none" style="stroke:#181818;stroke-width:0.5;"/><text fill="#000000" font-family="sans-serif" font-size="14" lengthAdjust="spacing" textLength="93" x="182.5" y="78.4951">Chef_agence</text></g><!--MD5=[3d2839dee7bd3d6d020f2d93ea234908]
link Chef_agence to a--><g id="link_Chef_agence_a"><path d="M189.815,81.77 C167.115,103.3606 139.275,129.8396 119.844,148.3216 " fill="none" id="Chef_agence-to-a" style="stroke:#181818;stroke-width:1.0;"/><polygon fill="#181818" points="116.073,151.9076,125.3505,148.6017,119.6954,148.4611,119.836,142.806,116.073,151.9076" style="stroke:#181818;stroke-width:1.0;"/></g><!--MD5=[5fce8b0f6536d5980f67bea812ecb708]
link Chef_agence to b--><g id="link_Chef_agence_b"><path d="M268.48,81.77 C287.428,99.657 309.93,120.9001 328.224,138.1708 " fill="none" id="Chef_agence-to-b" style="stroke:#181818;stroke-width:1.0;"/><polygon fill="#181818" points="332.3,142.018,328.5002,132.9317,328.6637,138.5862,323.0092,138.7497,332.3,142.018" style="stroke:#181818;stroke-width:1.0;"/></g><!--MD5=[e1a6ecea210ce1f7747db3b3ad0de9cc]
@startuml
usecase a as "Simuler un emprunt"
usecase b as "Simuler un emprunt avec assurance"

actor Chef_agence 

Chef_agence - -> a
Chef_agence - -> b
@enduml

PlantUML version 1.2022.6beta5(Unknown compile time)
(GPL source distribution)
Java Runtime: Java(TM) SE Runtime Environment
JVM: Java HotSpot(TM) 64-Bit Server VM
Default Encoding: UTF-8
Language: en
Country: US
--></g></svg>