<?xml version="1.0" encoding="UTF-8" standalone="no"?><svg xmlns="http://www.w3.org/2000/svg" xmlns:xlink="http://www.w3.org/1999/xlink" contentStyleType="text/css" height="222px" preserveAspectRatio="none" style="width:443px;height:222px;background:#FFFFFF;" version="1.1" viewBox="0 0 443 222" width="443px" zoomAndPan="magnify"><defs/><g><g id="elem_a"><ellipse cx="157.2099" cy="179.642" fill="#F1F1F1" rx="151.2099" ry="32.642" style="stroke:#181818;stroke-width:0.5;"/><text fill="#000000" font-family="sans-serif" font-size="14" lengthAdjust="spacing" textLength="273" x="20.7099" y="182.4887">Modifier un prélèvement automatique</text></g><!--MD5=[34413ead84916979ab18eea1b2c854c1]
entity Guichetier--><g id="elem_Guichetier"><ellipse cx="273" cy="14" fill="#F1F1F1" rx="8" ry="8" style="stroke:#181818;stroke-width:0.5;"/><path d="M273,22 L273,49 M260,30 L286,30 M273,49 L260,64 M273,49 L286,64 " fill="none" style="stroke:#181818;stroke-width:0.5;"/><text fill="#000000" font-family="sans-serif" font-size="14" lengthAdjust="spacing" textLength="75" x="235.5" y="78.4951">Guichetier</text></g><!--MD5=[6e53e4912c308b5abf33c4da5f75d75e]
entity Chef_agence--><g id="elem_Chef_agence"><ellipse cx="390" cy="150" fill="#F1F1F1" rx="8" ry="8" style="stroke:#181818;stroke-width:0.5;"/><path d="M390,158 L390,185 M377,166 L403,166 M390,185 L377,200 M390,185 L403,200 " fill="none" style="stroke:#181818;stroke-width:0.5;"/><text fill="#000000" font-family="sans-serif" font-size="14" lengthAdjust="spacing" textLength="93" x="343.5" y="214.4951">Chef_agence</text></g><!--MD5=[d09773056799cfcd355772dbafc0f5c1]
reverse link Guichetier to Chef_agence--><g id="link_Guichetier_Chef_agence"><path d="M319.103,97.301 C331.974,112.043 345.684,127.745 357.584,141.3737 " fill="none" id="Guichetier-backto-Chef_agence" style="stroke:#181818;stroke-width:1.0;"/><polygon fill="none" points="313.472,101.496,305.591,81.826,324.018,92.288,313.472,101.496" style="stroke:#181818;stroke-width:1.0;"/></g><!--MD5=[bb53160d542fefe9f41bbae1f5a77c48]
link Guichetier to a--><g id="link_Guichetier_a"><path d="M240.688,81.826 C224.109,100.977 204.022,124.1813 187.683,143.0555 " fill="none" id="Guichetier-to-a" style="stroke:#181818;stroke-width:1.0;"/><polygon fill="#181818" points="184.044,147.26,192.9589,143.0737,187.3166,143.4798,186.9105,137.8375,184.044,147.26" style="stroke:#181818;stroke-width:1.0;"/></g><!--MD5=[f08cfe9314054729801850f0cd53932c]
@startuml
usecase a as "Modifier un prélèvement automatique"

actor Guichetier 
actor Chef_agence 

Guichetier <|- - Chef_agence

Guichetier - -> a
@enduml

PlantUML version 1.2022.6beta5(Unknown compile time)
(GPL source distribution)
Java Runtime: Java(TM) SE Runtime Environment
JVM: Java HotSpot(TM) 64-Bit Server VM
Default Encoding: UTF-8
Language: en
Country: US
--></g></svg>