<?xml version="1.0" encoding="UTF-8" standalone="no"?><svg xmlns="http://www.w3.org/2000/svg" xmlns:xlink="http://www.w3.org/1999/xlink" contentStyleType="text/css" height="323px" preserveAspectRatio="none" style="width:1184px;height:323px;background:#FFFFFF;" version="1.1" viewBox="0 0 1184 323" width="1184px" zoomAndPan="magnify"><defs/><g><g id="elem_a"><ellipse cx="111.9086" cy="179.5817" fill="#F1F1F1" rx="105.9086" ry="23.5817" style="stroke:#181818;stroke-width:0.5;"/><text fill="#000000" font-family="sans-serif" font-size="14" lengthAdjust="spacing" textLength="177" x="23.4086" y="182.4284">Créditer un compte (BD)</text></g><g id="elem_b"><ellipse cx="334.9455" cy="179.6891" fill="#F1F1F1" rx="81.4455" ry="18.6891" style="stroke:#181818;stroke-width:0.5;"/><text fill="#000000" font-family="sans-serif" font-size="14" lengthAdjust="spacing" textLength="122" x="272.8109" y="182.909">Créer un compte</text></g><g id="elem_c"><ellipse cx="622.9998" cy="179.7" fill="#F1F1F1" rx="171.4998" ry="36.7" style="stroke:#181818;stroke-width:0.5;"/><text fill="#000000" font-family="sans-serif" font-size="14" lengthAdjust="spacing" textLength="315" x="465.4998" y="182.5466">Effectuer un virement de compte à compte</text></g><g id="elem_d"><ellipse cx="919.1728" cy="179.3346" fill="#F1F1F1" rx="89.6728" ry="20.3346" style="stroke:#181818;stroke-width:0.5;"/><text fill="#000000" font-family="sans-serif" font-size="14" lengthAdjust="spacing" textLength="141" x="848.6728" y="182.1812">Clôturer un compte</text></g><g id="elem_e"><ellipse cx="1089.7915" cy="297.6583" fill="#F1F1F1" rx="88.7915" ry="20.1583" style="stroke:#181818;stroke-width:0.5;"/><text fill="#000000" font-family="sans-serif" font-size="14" lengthAdjust="spacing" textLength="139" x="1020.2915" y="300.505">Gérer les employés</text></g><!--MD5=[34413ead84916979ab18eea1b2c854c1]
entity Guichetier--><g id="elem_Guichetier"><ellipse cx="623" cy="14" fill="#F1F1F1" rx="8" ry="8" style="stroke:#181818;stroke-width:0.5;"/><path d="M623,22 L623,49 M610,30 L636,30 M623,49 L610,64 M623,49 L636,64 " fill="none" style="stroke:#181818;stroke-width:0.5;"/><text fill="#000000" font-family="sans-serif" font-size="14" lengthAdjust="spacing" textLength="75" x="585.5" y="78.4951">Guichetier</text></g><!--MD5=[6e53e4912c308b5abf33c4da5f75d75e]
entity Chef_agence--><g id="elem_Chef_agence"><ellipse cx="1090" cy="150" fill="#F1F1F1" rx="8" ry="8" style="stroke:#181818;stroke-width:0.5;"/><path d="M1090,158 L1090,185 M1077,166 L1103,166 M1090,185 L1077,200 M1090,185 L1103,200 " fill="none" style="stroke:#181818;stroke-width:0.5;"/><text fill="#000000" font-family="sans-serif" font-size="14" lengthAdjust="spacing" textLength="93" x="1043.5" y="214.4951">Chef_agence</text></g><!--MD5=[d09773056799cfcd355772dbafc0f5c1]
reverse link Guichetier to Chef_agence--><g id="link_Guichetier_Chef_agence"><path d="M680.683,53.011 C760.382,65.963 907.734,94.237 1026,141.5 C1031.72,143.786 1037.55,146.516 1043.24,149.442 " fill="none" id="Guichetier-backto-Chef_agence" style="stroke:#181818;stroke-width:1.0;"/><polygon fill="none" points="679.438,59.901,660.775,49.868,681.622,46.073,679.438,59.901" style="stroke:#181818;stroke-width:1.0;"/></g><!--MD5=[bb53160d542fefe9f41bbae1f5a77c48]
link Guichetier to a--><g id="link_Guichetier_a"><path d="M585.497,53.315 C516.214,69.728 363.583,106.495 236,141.5 C216.627,146.815 195.658,152.932 176.572,158.641 " fill="none" id="Guichetier-to-a" style="stroke:#181818;stroke-width:1.0;"/><polygon fill="#181818" points="171.763,160.083,181.5325,161.3306,176.5525,158.6474,179.2356,153.6674,171.763,160.083" style="stroke:#181818;stroke-width:1.0;"/></g><!--MD5=[e9de48d3c45d2536eba920565706cd08]
link Guichetier to b--><g id="link_Guichetier_b"><path d="M585.349,62.018 C530.477,87.549 429.055,134.738 373.634,160.525 " fill="none" id="Guichetier-to-b" style="stroke:#181818;stroke-width:1.0;"/><polygon fill="#181818" points="369.071,162.648,378.9184,162.4788,373.6045,160.5391,375.5442,155.2252,369.071,162.648" style="stroke:#181818;stroke-width:1.0;"/></g><!--MD5=[8ec233627b6e207ab77767b01cddbd94]
link Guichetier to c--><g id="link_Guichetier_c"><path d="M623,81.826 C623,99.091 623,119.649 623,137.36 " fill="none" id="Guichetier-to-c" style="stroke:#181818;stroke-width:1.0;"/><polygon fill="#181818" points="623,142.758,627,133.758,623,137.758,619,133.758,623,142.758" style="stroke:#181818;stroke-width:1.0;"/></g><!--MD5=[b0dc9b87453cd3dc1c23d1a4629f9dd2]
link Guichetier to d--><g id="link_Guichetier_d"><path d="M660.789,61.607 C715.666,86.45 817.181,132.406 875.235,158.688 " fill="none" id="Guichetier-to-d" style="stroke:#181818;stroke-width:1.0;"/><polygon fill="#181818" points="880.026,160.856,873.4773,153.4997,875.4712,158.7936,870.1774,160.7874,880.026,160.856" style="stroke:#181818;stroke-width:1.0;"/></g><!--MD5=[b1b77d31ecd9ae14562bd50f4e977f82]
link Chef_agence to e--><g id="link_Chef_agence_e"><path d="M1090,217.5221 C1090,235.3934 1090,256.3356 1090,272.163 " fill="none" id="Chef_agence-to-e" style="stroke:#181818;stroke-width:1.0;"/><polygon fill="#181818" points="1090,277.3226,1094,268.3226,1090,272.3226,1086,268.3226,1090,277.3226" style="stroke:#181818;stroke-width:1.0;"/></g><!--MD5=[2458dd0ac0405a28c122903e02c4610a]
@startuml
usecase a as "Créditer un compte (BD)"
usecase b as "Créer un compte"
usecase c as "Effectuer un virement de compte à compte"
usecase d as "Clôturer un compte"
usecase e as "Gérer les employés"

actor Guichetier 
actor Chef_agence 

Guichetier <|- - Chef_agence

Guichetier - -> a
Guichetier - -> b
Guichetier - -> c
Guichetier - -> d
Chef_agence - -> e
@enduml

PlantUML version 1.2022.4beta2(Unknown compile time)
(GPL source distribution)
Java Runtime: Java(TM) SE Runtime Environment
JVM: Java HotSpot(TM) 64-Bit Server VM
Default Encoding: UTF-8
Language: en
Country: US
--></g></svg>
