<?xml version="1.0" encoding="UTF-8" standalone="no"?><svg xmlns="http://www.w3.org/2000/svg" xmlns:xlink="http://www.w3.org/1999/xlink" contentStyleType="text/css" height="329px" preserveAspectRatio="none" style="width:1134px;height:329px;background:#FFFFFF;" version="1.1" viewBox="0 0 1134 329" width="1134px" zoomAndPan="magnify"><defs/><g><g id="elem_a"><ellipse cx="122.5602" cy="179.712" fill="#F1F1F1" rx="116.5602" ry="25.712" style="stroke:#181818;stroke-width:0.5;"/><text fill="#000000" font-family="sans-serif" font-size="14" lengthAdjust="spacing" textLength="200" x="22.5602" y="182.5587">Modifier informations client</text></g><g id="elem_b"><ellipse cx="376.7481" cy="179.3496" fill="#F1F1F1" rx="102.2481" ry="22.8496" style="stroke:#181818;stroke-width:0.5;"/><text fill="#000000" font-family="sans-serif" font-size="14" lengthAdjust="spacing" textLength="169" x="292.2481" y="182.1963">Créer un nouveau client</text></g><g id="elem_c"><ellipse cx="607.6163" cy="179.7233" fill="#F1F1F1" rx="94.1163" ry="21.2233" style="stroke:#181818;stroke-width:0.5;"/><text fill="#000000" font-family="sans-serif" font-size="14" lengthAdjust="spacing" textLength="151" x="532.1163" y="182.5699">Consulter un compte</text></g><g id="elem_d"><ellipse cx="840.5751" cy="179.715" fill="#F1F1F1" rx="104.0751" ry="23.215" style="stroke:#181818;stroke-width:0.5;"/><text fill="#000000" font-family="sans-serif" font-size="14" lengthAdjust="spacing" textLength="173" x="754.0751" y="182.5617">Débiter un compte (BD)</text></g><g id="elem_e"><ellipse cx="1026.2923" cy="300.2585" fill="#F1F1F1" rx="101.7923" ry="22.7585" style="stroke:#181818;stroke-width:0.5;"/><text fill="#000000" font-family="sans-serif" font-size="14" lengthAdjust="spacing" textLength="168" x="942.2923" y="303.1051">Rendre inactif un client</text></g><!--MD5=[34413ead84916979ab18eea1b2c854c1]
entity Guichetier--><g id="elem_Guichetier"><ellipse cx="607.5" cy="14" fill="#F1F1F1" rx="8" ry="8" style="stroke:#181818;stroke-width:0.5;"/><path d="M607.5,22 L607.5,49 M594.5,30 L620.5,30 M607.5,49 L594.5,64 M607.5,49 L620.5,64 " fill="none" style="stroke:#181818;stroke-width:0.5;"/><text fill="#000000" font-family="sans-serif" font-size="14" lengthAdjust="spacing" textLength="75" x="570" y="78.4951">Guichetier</text></g><!--MD5=[6e53e4912c308b5abf33c4da5f75d75e]
entity Chef_agence--><g id="elem_Chef_agence"><ellipse cx="1026.5" cy="150" fill="#F1F1F1" rx="8" ry="8" style="stroke:#181818;stroke-width:0.5;"/><path d="M1026.5,158 L1026.5,185 M1013.5,166 L1039.5,166 M1026.5,185 L1013.5,200 M1026.5,185 L1039.5,200 " fill="none" style="stroke:#181818;stroke-width:0.5;"/><text fill="#000000" font-family="sans-serif" font-size="14" lengthAdjust="spacing" textLength="93" x="980" y="214.4951">Chef_agence</text></g><!--MD5=[d09773056799cfcd355772dbafc0f5c1]
reverse link Guichetier to Chef_agence--><g id="link_Guichetier_Chef_agence"><path d="M665.045,55.451 C736.536,70.127 861.428,99.308 962.5,141.5 C968.185,143.873 973.988,146.657 979.665,149.615 " fill="none" id="Guichetier-backto-Chef_agence" style="stroke:#181818;stroke-width:1.0;"/><polygon fill="none" points="663.317,62.244,645.084,51.447,666.07,48.517,663.317,62.244" style="stroke:#181818;stroke-width:1.0;"/></g><!--MD5=[bb53160d542fefe9f41bbae1f5a77c48]
link Guichetier to a--><g id="link_Guichetier_a"><path d="M569.846,54.903 C490.099,76.937 302.878,128.664 197.667,157.732 " fill="none" id="Guichetier-to-a" style="stroke:#181818;stroke-width:1.0;"/><polygon fill="#181818" points="192.719,159.099,202.4593,160.5575,197.5384,157.7673,200.3286,152.8465,192.719,159.099" style="stroke:#181818;stroke-width:1.0;"/></g><!--MD5=[e9de48d3c45d2536eba920565706cd08]
link Guichetier to b--><g id="link_Guichetier_b"><path d="M569.872,66.328 C527.724,90.777 459.681,130.248 416.565,155.259 " fill="none" id="Guichetier-to-b" style="stroke:#181818;stroke-width:1.0;"/><polygon fill="#181818" points="412.213,157.783,422.0051,156.7268,416.5379,155.274,417.9907,149.8069,412.213,157.783" style="stroke:#181818;stroke-width:1.0;"/></g><!--MD5=[8ec233627b6e207ab77767b01cddbd94]
link Guichetier to c--><g id="link_Guichetier_c"><path d="M607.5,81.826 C607.5,104.575 607.5,133.042 607.5,153.178 " fill="none" id="Guichetier-to-c" style="stroke:#181818;stroke-width:1.0;"/><polygon fill="#181818" points="607.5,158.366,611.5,149.366,607.5,153.366,603.5,149.366,607.5,158.366" style="stroke:#181818;stroke-width:1.0;"/></g><!--MD5=[b0dc9b87453cd3dc1c23d1a4629f9dd2]
link Guichetier to d--><g id="link_Guichetier_d"><path d="M645.194,66.178 C687.656,90.598 756.411,130.14 799.994,155.204 " fill="none" id="Guichetier-to-d" style="stroke:#181818;stroke-width:1.0;"/><polygon fill="#181818" points="804.393,157.734,798.5856,149.7795,800.0587,155.2412,794.5971,156.7143,804.393,157.734" style="stroke:#181818;stroke-width:1.0;"/></g><!--MD5=[b1b77d31ecd9ae14562bd50f4e977f82]
link Chef_agence to e--><g id="link_Chef_agence_e"><path d="M1026.5,217.5 C1026.5,235.154 1026.5,255.9072 1026.5,272.1182 " fill="none" id="Chef_agence-to-e" style="stroke:#181818;stroke-width:1.0;"/><polygon fill="#181818" points="1026.5,277.4307,1030.5,268.4307,1026.5,272.4307,1022.5,268.4307,1026.5,277.4307" style="stroke:#181818;stroke-width:1.0;"/></g><!--MD5=[d578b1e0cdf4d5c39b72e076f8f02742]
@startuml
usecase a as "Modifier informations client"
usecase b as "Créer un nouveau client"
usecase c as "Consulter un compte"
usecase d as "Débiter un compte (BD)"
usecase e as "Rendre inactif un client"

actor Guichetier 
actor Chef_agence 

Guichetier <|- - Chef_agence

Guichetier - -> a
Guichetier - -> b
Guichetier - -> c
Guichetier - -> d
Chef_agence - -> e
@enduml

PlantUML version 1.2022.4beta2(Unknown compile time)
(GPL source distribution)
Java Runtime: Java(TM) SE Runtime Environment
JVM: Java HotSpot(TM) 64-Bit Server VM
Default Encoding: UTF-8
Language: en
Country: US
--></g></svg>